<?xml version="1.0" standalone="no"?>
<!DOCTYPE svg PUBLIC "-//W3C//DTD SVG 20010904//EN"
 "http://www.w3.org/TR/2001/REC-SVG-20010904/DTD/svg10.dtd">
<svg version="1.0" xmlns="http://www.w3.org/2000/svg"
 width="1000.000000pt" height="1000.000000pt" viewBox="0 0 1000.000000 1000.000000"
 preserveAspectRatio="xMidYMid meet">
<metadata>
Created by potrace 1.14, written by Peter Selinger 2001-2017
</metadata>
<g transform="translate(0.000000,1000.000000) scale(0.100000,-0.100000)"
fill="#000000" stroke="none">
<path d="M4426 9865 c-71 -41 -130 -75 -131 -75 -1 0 -78 -43 -170 -95 -92
-53 -188 -107 -214 -121 -86 -49 -346 -196 -411 -234 -36 -20 -85 -48 -110
-62 -25 -14 -61 -34 -80 -45 -19 -11 -62 -35 -95 -53 -33 -18 -77 -44 -97 -57
-21 -12 -40 -23 -42 -23 -3 0 -43 -22 -90 -50 -47 -27 -89 -50 -95 -50 -6 0
-11 -4 -11 -10 0 -5 -4 -10 -9 -10 -4 0 -69 -34 -142 -76 -136 -77 -182 -103
-266 -151 -50 -27 -62 -34 -180 -102 -91 -51 -79 -45 -448 -253 -170 -96 -411
-233 -535 -303 -124 -70 -281 -159 -350 -198 -69 -38 -132 -75 -140 -81 -14
-10 -16 -299 -15 -2705 l0 -2695 164 -103 c90 -57 165 -103 168 -103 2 0 9 -5
16 -11 7 -6 100 -65 207 -131 107 -66 224 -139 260 -162 36 -24 87 -56 113
-72 56 -34 32 -19 327 -204 127 -80 239 -149 248 -155 51 -30 148 -90 157 -97
26 -22 617 -388 626 -388 5 0 9 -3 9 -8 0 -4 9 -12 21 -17 17 -9 183 -111 359
-223 30 -19 71 -45 90 -57 19 -12 66 -42 104 -66 39 -24 78 -48 88 -54 10 -5
196 -121 413 -257 217 -137 396 -248 398 -248 2 0 3 2223 3 4940 0 2717 -2
4940 -5 4940 -3 -1 -64 -34 -135 -75z m-1045 -4835 c-1 -1432 -2 -2605 -4
-2607 -2 -2 -80 41 -173 95 -171 100 -730 423 -794 460 -30 16 -99 57 -220
127 -14 8 -78 45 -142 82 -79 46 -118 74 -120 88 -3 17 -2 3495 1 3517 1 4 25
22 54 38 28 17 59 35 67 41 48 31 383 219 390 219 5 0 10 4 12 8 2 4 28 22 58
39 30 17 123 70 205 118 83 48 166 96 185 107 19 10 42 23 50 28 31 20 342
200 347 200 2 0 20 11 40 25 20 13 38 23 40 21 2 -2 4 -1175 4 -2606z"/>
<path d="M5430 7615 c0 -1279 3 -2325 6 -2325 4 0 52 28 108 63 55 34 108 67
118 72 23 13 191 117 441 272 109 68 202 123 207 123 4 0 10 4 12 9 2 4 22 19
45 32 148 85 242 146 245 159 2 8 3 324 3 703 -1 378 1 687 4 687 3 0 22 -10
41 -22 76 -46 353 -208 357 -208 2 0 16 -9 31 -19 48 -33 454 -271 463 -271 5
0 9 -4 9 -10 0 -5 4 -10 9 -10 5 0 78 -41 163 -91 167 -100 184 -110 273 -161
33 -19 102 -60 154 -91 51 -32 98 -57 104 -57 21 0 -19 -28 -213 -147 -170
-105 -440 -273 -1057 -657 -90 -56 -171 -106 -180 -111 -18 -10 -50 -31 -113
-71 -19 -12 -123 -76 -230 -142 -107 -67 -200 -126 -207 -131 -7 -6 -14 -11
-17 -11 -5 0 -281 -170 -381 -235 -55 -35 -215 -134 -243 -150 -37 -21 -97
-59 -102 -64 -3 -4 -14 -11 -25 -17 -20 -11 -20 -23 -23 -2343 -2 -1866 0
-2331 10 -2325 7 4 82 51 166 103 84 53 168 105 186 116 18 11 82 51 142 88
60 38 172 108 249 156 414 258 1705 1066 1735 1086 19 13 235 148 480 301 245
152 514 321 598 373 83 53 163 102 177 109 l25 13 0 615 0 615 -47 -27 c-27
-14 -77 -42 -113 -62 -36 -19 -72 -41 -81 -48 -8 -8 -19 -14 -23 -14 -4 0 -38
-17 -74 -39 -37 -21 -89 -51 -117 -66 -85 -47 -218 -121 -260 -145 -22 -13
-59 -33 -82 -46 -63 -35 -127 -70 -180 -100 -27 -15 -93 -52 -148 -84 -55 -31
-107 -60 -115 -63 -8 -4 -31 -17 -50 -28 -36 -21 -338 -192 -420 -237 -25 -13
-58 -33 -75 -42 -16 -10 -50 -29 -75 -42 -25 -14 -63 -35 -85 -48 -22 -12 -98
-55 -170 -95 -71 -40 -203 -114 -293 -164 -89 -50 -166 -91 -170 -91 -5 0 -8
403 -8 895 l1 896 55 27 c30 16 111 58 180 94 69 36 193 100 275 143 83 43
191 99 240 125 50 26 158 82 240 125 83 43 177 92 210 110 83 45 262 135 370
185 193 91 254 120 370 175 66 32 156 74 200 95 44 21 134 63 200 95 66 32
148 70 183 86 l62 29 -2 1266 -3 1266 -40 22 c-22 11 -41 24 -43 29 -2 4 -7 7
-12 7 -4 0 -34 15 -67 33 -201 115 -458 260 -490 278 -21 11 -60 34 -88 50
-27 17 -62 35 -77 42 -16 6 -28 15 -28 19 0 4 -4 8 -9 8 -4 0 -102 53 -217
118 -115 66 -231 131 -259 147 -27 15 -115 65 -195 110 -196 111 -1170 663
-1320 747 -25 14 -108 61 -185 105 -77 44 -160 91 -185 105 -25 14 -97 54
-160 90 -63 36 -137 78 -165 94 -27 15 -88 49 -134 76 -46 26 -85 48 -87 48
-2 0 -4 -1046 -4 -2325z"/>
</g>
</svg>
