<svg width="254" height="50" viewBox="0 0 254 50" fill="none" xmlns="http://www.w3.org/2000/svg">
<path d="M0 10.7955L19.0705 0V50L13.0769 38.0682V11.6477L5.72115 15.9091V25.2841V33.8068L13.0769 38.0682L19.0705 50L0 38.0682V10.7955Z" fill="white"/>
<path d="M42.5 10.7955L23.4295 0V23.5795L29.4231 19.8864V12.7841L37.5961 17.6136L23.4295 26.4205H29.9679H36.5064L42.5 23.5795V31.8725L29.4231 39.2045V30.1136L36.5064 26.4205H29.9679H23.4295V50L42.5 38.0682V10.7955Z" fill="white"/>
<path d="M64.2529 12H73.4004C77.0085 12 79.8141 13.0348 81.8174 15.1045C83.8206 17.1742 84.8223 20.1016 84.8223 23.8867C84.8223 27.6829 83.8151 30.6436 81.8008 32.7686C79.7975 34.8936 76.9974 35.9561 73.4004 35.9561H64.2529V12ZM69.2666 16.1338V31.8057H72.8027C75.0495 31.8057 76.7594 31.1361 77.9326 29.7969C79.1169 28.4466 79.709 26.4821 79.709 23.9033C79.709 21.402 79.1113 19.4818 77.916 18.1426C76.7207 16.8034 75.0163 16.1338 72.8027 16.1338H69.2666Z" fill="white"/>
<path d="M94.418 32.7354C95.4915 32.7354 96.3991 32.4255 97.1406 31.8057C97.8932 31.1748 98.2695 30.3835 98.2695 29.4316V28.1367L94.5176 28.3691C93.61 28.4355 92.9072 28.6624 92.4092 29.0498C91.9222 29.4372 91.6787 29.9463 91.6787 30.5771C91.6787 31.2412 91.9277 31.7669 92.4258 32.1543C92.9238 32.5417 93.5879 32.7354 94.418 32.7354ZM92.8242 36.2383C91.1087 36.2383 89.6865 35.7347 88.5576 34.7275C87.4287 33.7204 86.8643 32.4255 86.8643 30.8428C86.8643 29.2269 87.4619 27.9596 88.6572 27.041C89.8525 26.1224 91.5625 25.5967 93.7871 25.4639L98.2695 25.1982V24.0195C98.2695 23.2005 97.9984 22.5586 97.4561 22.0938C96.9248 21.6289 96.1999 21.3965 95.2812 21.3965C94.3958 21.3965 93.6709 21.5957 93.1064 21.9941C92.5531 22.3926 92.2155 22.9294 92.0938 23.6045H87.6611C87.7497 21.8558 88.4967 20.4502 89.9023 19.3877C91.3079 18.3141 93.1729 17.7773 95.4971 17.7773C97.777 17.7773 99.6032 18.3197 100.976 19.4043C102.348 20.4889 103.034 21.9277 103.034 23.7207V35.9561H98.3525V33.2334H98.2529C97.7659 34.1631 97.0244 34.8991 96.0283 35.4414C95.0322 35.9727 93.9642 36.2383 92.8242 36.2383Z" fill="white"/>
<path d="M106.172 35.9561V18.1592H110.854V21.3301H110.953C111.44 20.2012 112.148 19.3379 113.078 18.7402C114.019 18.1315 115.164 17.8271 116.515 17.8271C118.485 17.8271 120.007 18.4137 121.08 19.5869C122.154 20.7601 122.69 22.3926 122.69 24.4844V35.9561H117.843V25.4971C117.843 24.3239 117.566 23.4219 117.013 22.791C116.459 22.1602 115.646 21.8447 114.572 21.8447C113.499 21.8447 112.635 22.2044 111.982 22.9238C111.34 23.6432 111.02 24.584 111.02 25.7461V35.9561H106.172Z" fill="white"/>
<path d="M133.979 32.1709C135.197 32.1709 136.16 31.7171 136.868 30.8096C137.588 29.891 137.947 28.6292 137.947 27.0244C137.947 25.4196 137.588 24.1413 136.868 23.1895C136.149 22.2376 135.186 21.7617 133.979 21.7617C132.784 21.7617 131.832 22.2376 131.124 23.1895C130.427 24.1302 130.078 25.4085 130.078 27.0244C130.078 28.6403 130.427 29.902 131.124 30.8096C131.821 31.7171 132.773 32.1709 133.979 32.1709ZM133.896 42.6631C131.583 42.6631 129.68 42.154 128.186 41.1357C126.702 40.1286 125.861 38.8226 125.662 37.2178H130.41C130.598 37.8376 131.019 38.3356 131.672 38.7119C132.336 39.0993 133.122 39.293 134.029 39.293C135.258 39.293 136.215 38.9775 136.901 38.3467C137.588 37.7269 137.931 36.8913 137.931 35.8398V32.7188H137.831C137.41 33.6816 136.708 34.4564 135.723 35.043C134.738 35.6185 133.609 35.9062 132.336 35.9062C130.145 35.9062 128.39 35.1094 127.073 33.5156C125.767 31.9219 125.114 29.7471 125.114 26.9912C125.114 24.1689 125.767 21.9443 127.073 20.3174C128.379 18.6904 130.161 17.877 132.419 17.877C133.681 17.877 134.793 18.1813 135.756 18.79C136.719 19.3988 137.438 20.2233 137.914 21.2637H137.997V18.1592H142.778V35.707C142.778 37.821 141.965 39.5088 140.338 40.7705C138.722 42.0322 136.575 42.6631 133.896 42.6631Z" fill="white"/>
<path d="M153.935 21.3633C152.883 21.3633 152.003 21.723 151.295 22.4424C150.598 23.1618 150.205 24.0804 150.116 25.1982H157.67C157.615 24.0583 157.244 23.1341 156.558 22.4258C155.882 21.7174 155.008 21.3633 153.935 21.3633ZM157.736 30.5107H162.186C161.92 32.2594 161.046 33.6706 159.562 34.7441C158.09 35.8066 156.259 36.3379 154.067 36.3379C151.334 36.3379 149.187 35.5189 147.626 33.8809C146.076 32.2428 145.302 29.9961 145.302 27.1406C145.302 24.2962 146.076 22.0273 147.626 20.334C149.175 18.6296 151.262 17.7773 153.885 17.7773C156.464 17.7773 158.517 18.5853 160.044 20.2012C161.571 21.8171 162.335 23.9808 162.335 26.6924V28.1699H150.066V28.4688C150.066 29.7415 150.437 30.7764 151.179 31.5732C151.931 32.359 152.922 32.752 154.15 32.752C155.036 32.752 155.799 32.5527 156.441 32.1543C157.083 31.7448 157.515 31.1969 157.736 30.5107Z" fill="white"/>
<path d="M164.842 35.9561V18.1592H169.523V21.3633H169.623C169.933 20.2344 170.453 19.3711 171.184 18.7734C171.914 18.1758 172.805 17.877 173.856 17.877C174.366 17.877 174.825 17.9378 175.234 18.0596V22.3262C174.781 22.138 174.194 22.0439 173.475 22.0439C172.279 22.0439 171.35 22.3926 170.686 23.0898C170.021 23.7871 169.689 24.7611 169.689 26.0117V35.9561H164.842Z" fill="white"/>
<path d="M177.127 35.9561V32.6855L189.296 16.2666V16.1338H177.409V12H195.289V15.2539L183.17 31.6895V31.8057H195.621V35.9561H177.127Z" fill="white"/>
<path d="M212.953 33.8809C211.37 35.5189 209.223 36.3379 206.512 36.3379C203.8 36.3379 201.653 35.5133 200.07 33.8643C198.488 32.2152 197.696 29.9408 197.696 27.041C197.696 24.1745 198.493 21.9167 200.087 20.2676C201.692 18.6074 203.833 17.7773 206.512 17.7773C209.201 17.7773 211.343 18.6074 212.937 20.2676C214.53 21.9167 215.327 24.1745 215.327 27.041C215.327 29.9518 214.536 32.2318 212.953 33.8809ZM206.512 32.6357C207.707 32.6357 208.653 32.1488 209.351 31.1748C210.048 30.2008 210.396 28.8285 210.396 27.0576C210.396 25.3089 210.048 23.9421 209.351 22.957C208.653 21.972 207.707 21.4795 206.512 21.4795C205.316 21.4795 204.365 21.972 203.656 22.957C202.959 23.9421 202.61 25.3089 202.61 27.0576C202.61 28.8285 202.959 30.2008 203.656 31.1748C204.354 32.1488 205.305 32.6357 206.512 32.6357Z" fill="white"/>
<path d="M217.834 35.9561V18.1592H222.516V21.3301H222.615C223.102 20.2012 223.811 19.3379 224.74 18.7402C225.681 18.1315 226.826 17.8271 228.177 17.8271C230.147 17.8271 231.669 18.4137 232.742 19.5869C233.816 20.7601 234.353 22.3926 234.353 24.4844V35.9561H229.505V25.4971C229.505 24.3239 229.228 23.4219 228.675 22.791C228.121 22.1602 227.308 21.8447 226.234 21.8447C225.161 21.8447 224.298 22.2044 223.645 22.9238C223.003 23.6432 222.682 24.584 222.682 25.7461V35.9561H217.834Z" fill="white"/>
<path d="M245.409 21.3633C244.358 21.3633 243.478 21.723 242.77 22.4424C242.072 23.1618 241.679 24.0804 241.591 25.1982H249.145C249.089 24.0583 248.718 23.1341 248.032 22.4258C247.357 21.7174 246.483 21.3633 245.409 21.3633ZM249.211 30.5107H253.66C253.395 32.2594 252.52 33.6706 251.037 34.7441C249.565 35.8066 247.733 36.3379 245.542 36.3379C242.808 36.3379 240.661 35.5189 239.101 33.8809C237.551 32.2428 236.776 29.9961 236.776 27.1406C236.776 24.2962 237.551 22.0273 239.101 20.334C240.65 18.6296 242.736 17.7773 245.359 17.7773C247.938 17.7773 249.991 18.5853 251.519 20.2012C253.046 21.8171 253.81 23.9808 253.81 26.6924V28.1699H241.541V28.4688C241.541 29.7415 241.912 30.7764 242.653 31.5732C243.406 32.359 244.396 32.752 245.625 32.752C246.51 32.752 247.274 32.5527 247.916 32.1543C248.558 31.7448 248.99 31.1969 249.211 30.5107Z" fill="white"/>
</svg>
